Beta (1992) Hindi 2CD DVDRip AVC x264 ESubs 6Ch-=MTR=-

Check out MY latest Uploads:
 
http://thepiratebay.org/user/HDvideos/0/7

Stay updated with us....

Seed after downloading....

EnjoY with HDvideos..

Say thanks if u like my posts

Give ur valuable feedbacks

Quality Uploads from HDvideos

-=MT=-Uploader-=HDvideos=-

Recommended Player:VLC Player

Credits: Punjabi_boy

Ripper : Rahul
Source : DDR
Complete name : Beta (1992) 
Format : Matroska
File size : 1.36 GiB
Duration : 2h 44mn
Overall bit rate : 1 189 Kbps
Encoded date : UTC 2011-08-03 21:04:13


Video
ID : 1
Format : AVC
Format/Info : Advanced Video Codec
Format profile : High@L3.0
Format settings, CABAC : Yes
Format settings, ReFrames : 4 frames
Muxing mode : Header stripping
Codec ID : V_MPEG4/ISO/AVC
Duration : 2h 44mn
Bit rate : 804 Kbps
Width : 704 pixels
Height : 368 pixels
Display aspect ratio : 1.913
Frame rate : 23.976 fps
Color space : YUV
Chroma subsampling : 4:2:0
Bit depth : 8 bits
Scan type : Progressive
Bits/(Pixel*Frame) : 0.129
Stream size : 917 MiB (66%)
Writing library : x264 core 115 r1995 c1e60b9


Audio
ID : 2
Format : AC-3
Format/Info : Audio Coding 3
Mode extension : CM (complete main)
Muxing mode : Header stripping
Codec ID : A_AC3
Duration : 2h 44mn
Bit rate mode : Constant
Bit rate : 384 Kbps
Channel(s) : 6 channels
Channel positions : Front: L C R, Side: L R, LFE
Sampling rate : 48.0 KHz
Bit depth : 16 bits
Compression mode : Lossy
Stream size : 451 MiB (32%)
